# xmcd
#
# Track frame offsets:
#   150
#   18081
#   30822
#   45896
#   62858
#   76324
#   93966
#   113125
#   129620
#   146997
#   162909
#   181671
#   202597
#   220854
#
# Disc length: 3190 seconds
#
# Revision: 0
# Processed by: cddbd v1.5.2PL0 Copyright (c) Steve Scherf et al.
# Submitted via: uFREEDB ActiveX Control 1.5
#
DISCID=a70c740e
DTITLE=Zeca Pagodinho - Duetos
DYEAR=2009
DGENRE=Latin
TTITLE0=Faixa Amarela
TTITLE1=Camarão que dorme a onde leva
TTITLE2=Mulheres
TTITLE3=Samba do Approach
TTITLE4=Bagaço de laranja
TTITLE5=A mulher do Anibal
TTITLE6=Maneiras
TTITLE7=Poeta do morro
TTITLE8=Judia de mim
TTITLE9=Sinha manda saia
TTITLE10=Feijoada completa
TTITLE11=Mais quem diisse que eu te esqueço
TTITLE12=Ela tem as beleza que eu nunca sonhei
TTITLE13=Moro na roça
EXTD=
EXTT0=
EXTT1=
EXTT2=
EXTT3=
EXTT4=
EXTT5=
EXTT6=
EXTT7=
EXTT8=
EXTT9=
EXTT10=
EXTT11=
EXTT12=
EXTT13=
PLAYORDER=
